<?xml version="1.0" ?><svg id="Icons" style="enable-background:new 0 0 32 32;" version="1.1" viewBox="0 0 32 32" xml:space="preserve" xmlns="http://www.w3.org/2000/svg" xmlns:xlink="http://www.w3.org/1999/xlink"><style type="text/css">
	.st0{fill:none;stroke:#000000;stroke-width:2;stroke-linecap:round;stroke-linejoin:round;stroke-miterlimit:10;}
</style><path d="M16,2C8.8,2,3,7.8,3,14.8v5.7c0,1.9,1.5,3.4,3.4,3.4C7,23.9,8,24.2,8,25v3c0,0.4,0.3,0.8,0.7,1c2.4,0.8,4.9,1.2,7.3,1.2  s4.9-0.4,7.3-1.2c0.4-0.1,0.7-0.5,0.7-1v-3c0-0.8,1-1.1,1.6-1.1c1.9,0,3.4-1.5,3.4-3.4v-5.7C29,7.8,23.2,2,16,2z M12.3,21.7  l-1.2,0.2c-0.2,0-0.4,0.1-0.7,0.1c-0.8,0-1.5-0.3-2.2-0.8C7.5,20.6,7,19.6,7,18.6v-0.2c0-1.9,1.5-3.4,3.4-3.4h1.2  c1.1,0,2,0.5,2.7,1.3c0.6,0.8,0.9,1.9,0.6,2.9C14.6,20.5,13.5,21.4,12.3,21.7z M17.4,23.9C17.3,24,17.2,24,17,24  c-0.4,0-0.7-0.2-0.9-0.6L16,23.2l-0.1,0.2c-0.2,0.5-0.8,0.7-1.3,0.4c-0.5-0.2-0.7-0.8-0.4-1.3l1-2c0.3-0.7,1.4-0.7,1.8,0l1,2  C18.1,23,17.9,23.6,17.4,23.9z M25,18.6c0,1-0.5,2-1.2,2.6c-0.6,0.5-1.4,0.8-2.2,0.8c-0.2,0-0.4,0-0.7-0.1l-1.2-0.2  c-1.3-0.3-2.3-1.2-2.6-2.5c-0.3-1,0-2.1,0.6-2.9c0.6-0.8,1.6-1.3,2.7-1.3h1.2c1.9,0,3.4,1.5,3.4,3.4V18.6z"/></svg>