<?xml version="1.0" ?><svg id="Icons" style="enable-background:new 0 0 32 32;" version="1.1" viewBox="0 0 32 32" xml:space="preserve" xmlns="http://www.w3.org/2000/svg" xmlns:xlink="http://www.w3.org/1999/xlink"><style type="text/css">
	.st0{fill:none;stroke:#000000;stroke-width:2;stroke-linecap:round;stroke-linejoin:round;stroke-miterlimit:10;}
</style><path class="st0" d="M29,12.5c0-3-2.5-5.5-5.5-5.5c-0.2,0-0.3,0-0.5,0V6.5C23,4.6,21.4,3,19.5,3S16,4.6,16,6.5v19  c0,1.9,1.6,3.5,3.5,3.5c1.8,0,3.2-1.3,3.5-3c2.8-0.2,5-2.6,5-5.5c0-1.4-0.5-2.6-1.3-3.6C28.1,16,29,14.3,29,12.5z"/><path class="st0" d="M3,12.5C3,9.5,5.5,7,8.5,7C8.7,7,8.8,7,9,7V6.5C9,4.6,10.6,3,12.5,3S16,4.6,16,6.5v19c0,1.9-1.6,3.5-3.5,3.5  c-1.8,0-3.2-1.3-3.5-3c-2.8-0.2-5-2.6-5-5.5c0-1.4,0.5-2.6,1.3-3.6C3.9,16,3,14.3,3,12.5z"/><path class="st0" d="M23,16c2.8,0,5,2.2,5,5"/><path class="st0" d="M8.5,18c-3,0-5.5-2.5-5.5-5.5"/><path class="st0" d="M10.2,9.2C9.5,8.5,9,7.6,9,6.5"/></svg>