<?xml version="1.0" ?><svg id="Icons" style="enable-background:new 0 0 32 32;" version="1.1" viewBox="0 0 32 32" xml:space="preserve" xmlns="http://www.w3.org/2000/svg" xmlns:xlink="http://www.w3.org/1999/xlink"><style type="text/css">
	.st0{fill:none;stroke:#000000;stroke-width:2;stroke-linecap:round;stroke-linejoin:round;stroke-miterlimit:10;}
</style><g><path d="M28,28.8l-1.6-6.4c-0.3-1.3-1-2.4-2.2-3.1l-3.7-2.1c-0.3-0.2-0.8-0.2-1.1,0.1c-2,1.5-4.8,1.5-6.8,0c0,0,0,0,0,0   c0,0-0.1,0-0.1-0.1c-0.1,0-0.1-0.1-0.2-0.1c0,0,0,0,0,0c-0.1,0-0.2,0-0.3,0c0,0-0.1,0-0.1,0c-0.1,0-0.2,0-0.3,0.1c0,0,0,0-0.1,0   c0,0,0,0,0,0C9,18.8,5.8,21,5,24.3c-0.3,1.4,0,2.8,0.9,4C6.8,29.4,8.2,30,9.6,30h6.9c0.1,0,0.2,0,0.3,0c0.1,0,0.1,0,0.2,0h10   c0.3,0,0.6-0.1,0.8-0.4S28,29.1,28,28.8z M7.5,27C7,26.3,6.8,25.5,7,24.7c0.4-2,2.2-3.5,4-4.8V23h-1c-0.6,0-1,0.4-1,1s0.4,1,1,1h2   h4.5c0.8,0,1.5,0.7,1.5,1.5S17.3,28,16.5,28H9.6C8.8,28,8,27.6,7.5,27z"/><path d="M16,17c2.8,0,5-2.2,5-5v-2h1c0.6,0,1-0.4,1-1V6.5C23,4,21,2,18.5,2c-1.7,0-3.1,0.9-3.9,2.3C14.3,4.1,13.9,4,13.5,4   C12.1,4,11,5.1,11,6.5V12C11,14.8,13.2,17,16,17z"/></g></svg>