<?xml version="1.0" ?><svg id="Icons" style="enable-background:new 0 0 32 32;" version="1.1" viewBox="0 0 32 32" xml:space="preserve" xmlns="http://www.w3.org/2000/svg" xmlns:xlink="http://www.w3.org/1999/xlink"><style type="text/css">
	.st0{fill:none;stroke:#000000;stroke-width:2;stroke-linecap:round;stroke-linejoin:round;stroke-miterlimit:10;}
</style><g><path d="M17,8V3c0-0.4-0.3-0.8-0.7-0.9l-3-1C13,0.9,12.7,1,12.4,1.2S12,1.7,12,2v6h-0.3C6.3,8,2,12.3,2,17.7v9c0,0.8,0.3,1.5,0.9,2   c0.4,0.3,0.9,0.4,1.4,0.4c0.4,0,0.7-0.1,1.1-0.3l7.4-4c0.9-0.5,1.8-0.9,2.7-1.2c2.1-4.4,2.9-9.9,2.2-14.9C17.6,8.4,17.3,8.1,17,8z"/><path d="M29.4,8.7C29,8.3,28.5,8,27.9,8H25V4c0-0.3-0.2-0.6-0.4-0.8C24.3,3,24,2.9,23.7,3.1l-3,1C20.3,4.2,20,4.6,20,5v3.2   c-0.2,0.2-0.3,0.5-0.3,0.8c0.6,4.6,0,9.7-1.7,13.9c0.7-0.2,1.5-0.3,2.2-0.4c3.4-0.4,6.2-2.6,7.3-5.8l2.1-6.4   C29.8,9.8,29.7,9.2,29.4,8.7z"/><path d="M13.7,26.6l-4.9,2.7c0.6,0.3,1.4,0.5,2.2,0.5c0.8,0,1.7-0.2,2.6-0.6c1.8-0.8,2.9-2.3,3.2-3.9l-0.5,0.2   C15.2,25.9,14.4,26.3,13.7,26.6z"/></g></svg>