<?xml version="1.0" ?><svg id="Icons" style="enable-background:new 0 0 32 32;" version="1.1" viewBox="0 0 32 32" xml:space="preserve" xmlns="http://www.w3.org/2000/svg" xmlns:xlink="http://www.w3.org/1999/xlink"><style type="text/css">
	.st0{fill:none;stroke:#000000;stroke-width:2;stroke-linecap:round;stroke-linejoin:round;stroke-miterlimit:10;}
</style><path d="M29,10h-7V3c0-0.6-0.4-1-1-1H11c-0.6,0-1,0.4-1,1v7H3c-0.6,0-1,0.4-1,1v10c0,0.6,0.4,1,1,1h7v7c0,0.6,0.4,1,1,1h10  c0.6,0,1-0.4,1-1v-7h7c0.6,0,1-0.4,1-1V11C30,10.4,29.6,10,29,10z M24,17h-7v7c0,0.6-0.4,1-1,1s-1-0.4-1-1v-7H8c-0.6,0-1-0.4-1-1  s0.4-1,1-1h7V8c0-0.6,0.4-1,1-1s1,0.4,1,1v7h7c0.6,0,1,0.4,1,1S24.6,17,24,17z"/></svg>