<?xml version="1.0" ?><svg id="Icons" style="enable-background:new 0 0 32 32;" version="1.1" viewBox="0 0 32 32" xml:space="preserve" xmlns="http://www.w3.org/2000/svg" xmlns:xlink="http://www.w3.org/1999/xlink"><style type="text/css">
	.st0{fill:none;stroke:#000000;stroke-width:2;stroke-linecap:round;stroke-linejoin:round;stroke-miterlimit:10;}
</style><g><path d="M21.8,16.9c0.1,0.7,0.5,1.3,1.2,1.8c0.6,0.4,1.5,0.5,2,0.6c-0.2-0.7-0.4-1.4-0.5-1.9c-0.2-1.2-0.6-2.3-1.1-3.3   c-0.3,0.2-0.5,0.5-0.8,0.7C22,15.5,21.7,16.3,21.8,16.9z"/><path d="M25.3,21.3c-0.2,0-2,0-3.4-0.9c-1.2-0.8-2-2-2.1-3.2c-0.1-1.3,0.4-2.6,1.4-3.7c1.7-1.8,3.8-2.7,4.8-3.1V7   c0-0.3-0.2-0.6-0.4-0.8C25.3,6,25,6,24.7,6l-1.2,0.4c-1.2,0.4-2.4,0.8-3.5,1.3V6.5C20,5.1,18.9,4,17.5,4c-0.2,0-0.4,0-0.5,0.1   C16.7,2.9,15.7,2,14.5,2C13.1,2,12,3.1,12,4.5V6H9.8C8.2,6,7,7.2,7,8.8v1.6c1.7-1.1,3.9-1.7,6.3-1.7c1.4,0,2.7,0.2,4,0.5   c0.6-0.3,1.1-0.6,1.7-0.9c0.5-0.2,1.1,0,1.3,0.5c0.2,0.5,0,1.1-0.5,1.3c-3.9,1.9-7.4,4.7-10.1,8.2c-0.2,0.3-0.5,0.4-0.8,0.4   c-0.2,0-0.4-0.1-0.6-0.2c-0.4-0.3-0.5-1-0.2-1.4c1.9-2.4,4.1-4.5,6.6-6.2c-0.5,0-1-0.1-1.5-0.1c-4.9,0-8.3,2.8-8.3,6.9   C5,25,13.5,30,19.2,30c2.8,0,4.7-0.7,5.8-2.2c1.4-1.8,1.1-4.3,0.6-6.6C25.5,21.3,25.4,21.3,25.3,21.3z"/></g></svg>