<?xml version="1.0" ?><svg id="Icons" style="enable-background:new 0 0 32 32;" version="1.1" viewBox="0 0 32 32" xml:space="preserve" xmlns="http://www.w3.org/2000/svg" xmlns:xlink="http://www.w3.org/1999/xlink"><style type="text/css">
	.st0{fill:none;stroke:#000000;stroke-width:2;stroke-linecap:round;stroke-linejoin:round;stroke-miterlimit:10;}
</style><path d="M22.6,15.2l-4.1-3.5c-1-0.8-1.5-2-1.5-3.2V2c0-0.6-0.4-1-1-1s-1,0.4-1,1v6.6c0,1.2-0.5,2.4-1.5,3.2l-4.1,3.5  c-0.4,0.4-0.5,1-0.1,1.4C9.4,16.9,9.7,17,10,17c0.2,0,0.5-0.1,0.6-0.2l4.1-3.5c0.5-0.4,0.9-0.9,1.2-1.4c0.3,0.5,0.7,1,1.2,1.4  l4.1,3.5c0.2,0.2,0.4,0.2,0.6,0.2c0.3,0,0.6-0.1,0.8-0.4C23.1,16.2,23.1,15.6,22.6,15.2z"/><path d="M15,18C15,18,15,17.9,15,18l-0.2-2.1l-2.9,2.4c-1.2,1-3.2,0.8-4.2-0.4c-0.5-0.6-0.8-1.4-0.7-2.2c0.1-0.8,0.5-1.5,1.1-2  l4.1-3.5c0.5-0.4,0.8-1,0.8-1.7v-3C12.5,5.2,12,5,11.3,5C7.2,5,2,13.9,2,23.4c0,3.8,0.5,5.6,1.7,6.3C4,29.9,4.3,30,4.6,30  c0.8,0,1.7-0.5,2.4-0.9c0.7-0.4,1.4-0.8,1.9-0.8c3.9,0,6-1.3,6-8.3c0-0.9,0-1,0-1.3C15,18.6,15,18.4,15,18z"/><path d="M20.8,5C20,5,19.5,5.2,19,5.6v3c0,0.6,0.3,1.2,0.8,1.7l4.1,3.5c0.6,0.5,1,1.2,1.1,2c0.1,0.8-0.2,1.6-0.7,2.2  C23.7,18.6,22.9,19,22,19c-0.7,0-1.4-0.2-1.9-0.7l-2.9-2.4L17,18c0,0.5,0,0.6,0,0.8c0,0.2,0,0.3,0,1.3c0,6.9,2.1,8.3,6,8.3  c0.5,0,1.3,0.4,1.9,0.8c0.8,0.4,1.6,0.9,2.4,0.9c0.3,0,0.7-0.1,1-0.3c1.2-0.7,1.7-2.5,1.7-6.3C30,13.9,24.8,5,20.8,5z"/></svg>