<svg id="Layer_1" data-name="Layer 1" xmlns="http://www.w3.org/2000/svg" xmlns:xlink="http://www.w3.org/1999/xlink" viewBox="0 0 1080 1080"><defs><style>.cls-1{fill:none;}.cls-2{fill:url(#linear-gradient);}.cls-3{clip-path:url(#clip-path);}.cls-4{fill:#544f4a;}.cls-5{fill:url(#linear-gradient-2);}.cls-15,.cls-6,.cls-8{opacity:0.33;}.cls-6{fill:url(#linear-gradient-3);}.cls-7{fill:url(#linear-gradient-4);}.cls-8{fill:url(#linear-gradient-5);}.cls-9{fill:url(#linear-gradient-6);}.cls-10{fill:#7e0f00;opacity:0.45;}.cls-11{fill:#f6ece7;}.cls-12,.cls-21{fill:#6d202a;}.cls-12{opacity:0.13;}.cls-13{fill:url(#linear-gradient-7);}.cls-14{fill:#ee5350;}.cls-15{fill:url(#linear-gradient-8);}.cls-16{fill:url(#linear-gradient-9);}.cls-17{fill:#965f5a;}.cls-18{fill:#fff;}.cls-19{fill:#da4d4d;}.cls-20{fill:url(#linear-gradient-10);}.cls-21{opacity:0.32;}.cls-22{fill:#e50f0a;}.cls-23{fill:#fbb03b;}.cls-24{clip-path:url(#clip-path-2);}</style><linearGradient id="linear-gradient" x1="-78.44" y1="608.42" x2="886.67" y2="600.76" gradientUnits="userSpaceOnUse"><stop offset="0" stop-color="#85ddfc"/><stop offset="0.39" stop-color="#80d3fd"/><stop offset="1" stop-color="#75bafe"/></linearGradient><clipPath id="clip-path"><path class="cls-1" d="M947,603.5C947,740.19,765.45,851,541.5,851S136,740.19,136,603.5c0-117,133-215,311.76-240.85C477.85,358.3,552.73,200,585,200c95.57,0,266,62.81,246.19,187.75C829.65,397.46,869,410.54,865,421c-12.68,33.47-13.79,50.09,9,71C912,526.85,947,557.36,947,603.5Z"/></clipPath><linearGradient id="linear-gradient-2" x1="420.93" y1="803.74" x2="478.1" y2="803.74" gradientUnits="userSpaceOnUse"><stop offset="0.1" stop-color="#eeb193"/><stop offset="0.82" stop-color="#eeb194"/></linearGradient><linearGradient id="linear-gradient-3" x1="434.18" y1="776.61" x2="479.3" y2="776.61" gradientUnits="userSpaceOnUse"><stop offset="0.06" stop-color="#b1654c"/><stop offset="0.82" stop-color="#b05d53"/></linearGradient><linearGradient id="linear-gradient-4" x1="824.98" y1="803.74" x2="882.14" y2="803.74" xlink:href="#linear-gradient-2"/><linearGradient id="linear-gradient-5" x1="823.78" y1="776.61" x2="868.89" y2="776.61" xlink:href="#linear-gradient-3"/><linearGradient id="linear-gradient-6" x1="649.45" y1="784.01" x2="649.45" y2="1058.09" gradientUnits="userSpaceOnUse"><stop offset="0" stop-color="#fc1600"/><stop offset="1" stop-color="#fd2a00"/></linearGradient><linearGradient id="linear-gradient-7" x1="610.47" y1="549.39" x2="697.14" y2="549.39" xlink:href="#linear-gradient-2"/><linearGradient id="linear-gradient-8" x1="586.27" y1="538.06" x2="711.41" y2="538.06" xlink:href="#linear-gradient-3"/><linearGradient id="linear-gradient-9" x1="542" y1="280.27" x2="751.63" y2="635.63" xlink:href="#linear-gradient-2"/><linearGradient id="linear-gradient-10" x1="576.51" y1="196.54" x2="734.58" y2="577.68" xlink:href="#linear-gradient-3"/><clipPath id="clip-path-2"><path class="cls-1" d="M505,584.42s27.76,15.27,7.87,40.21-41.94,3.22-41.94,3.22Z"/></clipPath></defs><ellipse class="cls-2" cx="541.5" cy="603.5" rx="405.5" ry="247.5"/><g class="cls-3"><polygon class="cls-4" points="622.79 1007.52 669.73 1007.52 886.29 1007.52 765.08 1014 610.37 1014 426.42 1014 526.81 1007.52 622.79 1007.52"/><path class="cls-5" d="M437.63,766.48s-37.57,61.86,0,72.73,32.55-30.94,32.55-30.94l7.92-23.14Z"/><polygon class="cls-6" points="437.63 766.48 434.18 772.69 477.55 786.75 479.3 783.7 437.63 766.48"/><path class="cls-7" d="M865.45,766.48s37.56,61.86,0,72.73-32.56-30.94-32.56-30.94L825,785.13Z"/><polygon class="cls-8" points="865.45 766.48 868.89 772.69 825.53 786.75 823.78 783.7 865.45 766.48"/><path class="cls-9" d="M516.77,845.4s10,107.7,0,113.28,0,26.76,0,26.76l16.73,7.8h64.66l35.68-5.57V963.14l7.81-29,8.93-25.64,8.9,32.33v31.22l8.92,21.18H776.55a63.83,63.83,0,0,0,4-7.78c2.18-5.07,3.83-8.91,3.29-13.17-.52-4.1-2.54-4.47-4.39-8.78-2.83-6.63.42-8.46,1.1-25.25.42-10.58.3-12.85,1-18.94.68-6.42,1.63-11.64,2.34-15.09L786.58,884v-52.4Z"/><path class="cls-10" d="M525,856.47S690.07,877,786.45,858.18l-.66-19Z"/><path class="cls-4" d="M533.5,993.24s-7.81,8.18,2.23,17.47h88.08s9.73-9.39-2.76-21.05S533.5,993.24,533.5,993.24Z"/><path class="cls-4" d="M771.7,993.24s7.8,8.18-2.23,17.47H681.39s-9.73-9.39,2.75-21.05S771.7,993.24,771.7,993.24Z"/><path class="cls-11" d="M681.94,534l-2.07.26a327.58,327.58,0,0,1-64.8-3.06,106.28,106.28,0,0,0-94.41,35.08c-45.12,51.1-109.19,134.11-105.92,190.18l74.35,34.28,4.24,63.55s56.72,2,121.32.34c86.25,6.64,188.22,2.95,188.22,2.95L807.11,794l74.36-34.28c3.27-56.2-61.1-139.45-106.23-190.53A106.62,106.62,0,0,0,681.94,534Z"/><path class="cls-12" d="M596.15,566.15l-7.68,15.37s25.1-16.39,52.06-13.13c0,0-18-7.72-29-5.53S596.15,566.15,596.15,566.15Z"/><path class="cls-12" d="M665.1,569.78S696,566.15,718,577.13c0,0-5.79-14-30.34-14.66Z"/><path class="cls-13" d="M611.21,528.83S601,569.26,656.32,569.94c48.51.59,40.29-41.11,40.29-41.11Z"/><path class="cls-14" d="M602.58,536.4l-18.5,44s19.71-20.29,57.6-11.79L610.6,538.46Z"/><path class="cls-14" d="M701.54,534.55,723.46,577s-21.26-18.67-58.36-7.2l28.61-32.53Z"/><path class="cls-15" d="M596.84,526.67s-7.38-1.53-10.57,3.07c8.3,7.6,35.19,19.69,70.29,20,30.25.22,47.2-9.37,54.85-16.88,0-5.55-2.29-6.14-2.29-6.14Z"/><path class="cls-12" d="M489.09,790.71,485.17,675S500.82,755.9,489.09,790.71Z"/><path class="cls-12" d="M809,794l3.92-115.71S797.22,759.2,809,794Z"/><path class="cls-12" d="M676.68,605.9S653.56,759,591.86,809.16C591.86,809.16,665.61,687.6,676.68,605.9Z"/><path class="cls-16" d="M809.73,431.09a54.6,54.6,0,0,0-7.58-.53q.2-3.3.17-6.65c-.62-65.1-67.85-117.24-150.17-116.45s-148.55,54.2-147.93,119.3a94,94,0,0,0,1.43,15.44,54.25,54.25,0,0,0-8.38,1.44c-22.6,5.71-37.32,24.58-32.88,42.15s26.36,27.19,49,21.48a51.09,51.09,0,0,0,20.82-10.63c27.43,28.69,71.15,47,120.23,46.57,52.53-.5,98.51-22.44,124.74-55.17a51.29,51.29,0,0,0,21.37,8c23.08,3.27,43.85-8.62,46.4-26.56S832.81,434.36,809.73,431.09Z"/><path class="cls-17" d="M511,470.35s-13.75-13-29-3S489.45,460.69,511,470.35Z"/><path class="cls-17" d="M499.49,472.58s-6.32,3.72,0,12.64,13.38,4.09,13.38,4.09S498.37,487.82,499.49,472.58Z"/><path class="cls-17" d="M799.92,457.82s13.75-13,29-3S821.48,448.15,799.92,457.82Z"/><path class="cls-17" d="M811.44,460.05s6.32,3.71,0,12.63-13.38,4.09-13.38,4.09S812.56,475.28,811.44,460.05Z"/><path class="cls-17" d="M634.21,442.91c-.26-3.44-.69-7.1-2.87-9.91-2.48-3.2-6.54-3.94-10.4-3.55-7.55.78-13,7.71-10.56,15.24,1.1,3.4,6.49,1.95,5.38-1.48-1.44-4.47,1.62-7.91,6-8.26,2.14-.17,4.37.05,5.53,2,1,1.73,1.15,4,1.29,5.93.27,3.56,5.84,3.59,5.58,0Z"/><path class="cls-17" d="M680.52,442.91c.35-4.66,1.3-8.4,6.83-8,4.41.35,7.49,3.8,6,8.26-1.11,3.42,4.27,4.89,5.37,1.48,2.43-7.53-3-14.46-10.56-15.24-3.85-.4-7.91.34-10.39,3.55-2.19,2.81-2.62,6.47-2.87,9.91s5.31,3.57,5.57,0Z"/><path class="cls-17" d="M660.8,465.93c-.3,4.68-1.22,8.42-6.75,8-4.42-.31-7.53-3.72-6.13-8.2,1.07-3.43-4.32-4.85-5.39-1.43-2.36,7.55,3.15,14.43,10.71,15.14,3.86.36,7.91-.42,10.36-3.64,2.16-2.84,2.55-6.5,2.77-9.95s-5.34-3.51-5.57.05Z"/><circle class="cls-18" cx="741.04" cy="661.65" r="35.13"/><path class="cls-19" d="M741.2,634.45c2.46,0,4.92,0,7.38,0a1.76,1.76,0,0,1,1.63,1.81c0,3,0,6,0,9v.63l1.9-1.09,6.18-3.58a1.85,1.85,0,0,1,2.87.79q3.48,6,7,12a1.84,1.84,0,0,1-.73,2.8q-3.81,2.22-7.64,4.42l-.46.28.75.44,7.4,4.28a1.85,1.85,0,0,1,1,1.84,2,2,0,0,1-.32.89q-3.51,6.09-7,12.17a1.83,1.83,0,0,1-2.77.71l-7.55-4.36a1.24,1.24,0,0,0-.58-.26V678q0,4.35,0,8.68a1.75,1.75,0,0,1-1.85,1.87l-7.16,0A.7.7,0,0,1,741,688a5.19,5.19,0,0,1,0-.56V635.54C741,635.17,740.93,634.78,741.2,634.45Z"/><path class="cls-14" d="M741.2,634.45v54c-2.42,0-4.84,0-7.26,0a1.77,1.77,0,0,1-1.75-1.89c0-2.94,0-5.89,0-8.84v-.68l-4.45,2.57L724,681.8a1.82,1.82,0,0,1-2.73-.71q-3.52-6.09-7-12.18a1.81,1.81,0,0,1,.75-2.72l7.55-4.36a1.11,1.11,0,0,0,.51-.4l-1.78-1-6.19-3.57a1.84,1.84,0,0,1-.78-2.87q3.45-6,6.92-12a1.83,1.83,0,0,1,2.83-.77l7.36,4.24.75.41v-9.29c0-1.45.67-2.12,2.14-2.12Z"/><path class="cls-20" d="M808.47,307.68c-27.51-41.26-82.31-48.5-142.09-46.41-148.84,5.22-146.1,26.7-125.48,41.27-50.82,20-67.53,132.51-44.94,145,2.77,1.53,5.85,1.39,8.65.82l17.2,22.35-3.58-27.48c35.63-18.53,66.38-73.11,78.12-95.92a288.78,288.78,0,0,0,40,32.74c55.81,37.81,112.94,47.92,149.65,50.37v36.72l15.86-36.06c2.16,0,4.2.05,6.09.05C812.38,421.28,840.43,355.63,808.47,307.68Z"/><path class="cls-21" d="M562.12,342.23s-30.3,67.33-51.11,71.84Z"/><path class="cls-21" d="M756.85,403.24S621.09,341.62,610.07,295.55A721.61,721.61,0,0,0,676,351,721.89,721.89,0,0,0,756.85,403.24Z"/><path class="cls-21" d="M601.64,352.11s-51.38-26.66-59.19-50.43a338.22,338.22,0,0,0,27.2,26.38A285.09,285.09,0,0,0,601.64,352.11Z"/><path class="cls-21" d="M792.06,362.41s-63.59-15.47-83.67-41.2c12.13,7.66,25.63,15.47,40.14,22.74A358.52,358.52,0,0,0,792.06,362.41Z"/><polygon class="cls-4" points="541.27 856.1 541.27 883.22 553.03 875.7 554.61 855.22 541.27 856.1"/><polygon class="cls-4" points="766.29 859.39 766.29 886.51 754.53 878.99 752.95 858.51 766.29 859.39"/><path class="cls-22" d="M528.1,900.94v46.12a123.54,123.54,0,0,0,17.56,5.55A120.66,120.66,0,0,0,573,955.82q7.26-22.44,14.51-44.9"/><path class="cls-4" d="M539.24,903S550,918.3,573.1,908.34Z"/><path class="cls-4" d="M561.51,910.49l-.58,9.43a5.51,5.51,0,0,1-6.55,5.07l-4.42-.86a5.51,5.51,0,0,1-4.26-6.87l2.5-9.1a5.5,5.5,0,0,1,6.47-3.93l2.49.53A5.51,5.51,0,0,1,561.51,910.49Z"/><path class="cls-4" d="M595.88,909.67s-49.33,1.72-70.12-11.42Z"/><path class="cls-4" d="M527.55,949.44s44.92,6.78,44.92,6.37S551.77,948,527.55,949.44Z"/><path class="cls-23" d="M559.36,910.7l-.52,9a3.33,3.33,0,0,1-4,3.08l-4.64-1a3.34,3.34,0,0,1-2.56-4.1l2.25-8.71a3.35,3.35,0,0,1,4-2.43l2.91.67A3.33,3.33,0,0,1,559.36,910.7Z"/><path class="cls-4" d="M587.88,910.76a198.32,198.32,0,0,1-6,22c-3.44,10.29-8.08,21.37-8.47,21.22S575.5,945.91,587.88,910.76Z"/><path class="cls-4" d="M530,947.49a194.52,194.52,0,0,1-2.12-24.42c-.22-9.8.25-21.15.67-21.15S529.39,910.1,530,947.49Z"/><path class="cls-22" d="M776.17,902v46.11a123.9,123.9,0,0,1-17.56,5.56,120.74,120.74,0,0,1-27.37,3.21Q724,934.47,716.74,912"/><path class="cls-4" d="M765,904.12s-10.75,15.28-33.86,5.32Z"/><path class="cls-4" d="M742.76,911.58l.57,9.43a5.52,5.52,0,0,0,6.56,5.08l4.41-.86a5.51,5.51,0,0,0,4.26-6.87l-2.49-9.11a5.53,5.53,0,0,0-6.47-3.93l-2.5.54A5.5,5.5,0,0,0,742.76,911.58Z"/><path class="cls-4" d="M708.39,910.76s49.33,1.73,70.12-11.41Z"/><path class="cls-4" d="M776.72,950.54s-44.93,6.78-44.93,6.36S752.49,949.11,776.72,950.54Z"/><path class="cls-23" d="M744.9,911.79l.52,9a3.35,3.35,0,0,0,4,3.08l4.64-1a3.34,3.34,0,0,0,2.56-4.11l-2.25-8.71a3.33,3.33,0,0,0-4-2.42l-2.92.66A3.34,3.34,0,0,0,744.9,911.79Z"/><path class="cls-4" d="M716.38,911.86a201.14,201.14,0,0,0,6,22c3.44,10.28,8.08,21.36,8.47,21.22S728.76,947,716.38,911.86Z"/><path class="cls-4" d="M774.29,948.58a196.42,196.42,0,0,0,2.11-24.41c.23-9.8-.25-21.15-.67-21.15S774.87,911.2,774.29,948.58Z"/><polygon class="cls-4" points="534.08 868.12 535.76 896.57 530.61 885.08 534.08 868.12"/><polygon class="cls-4" points="773.77 868.12 772.09 896.57 777.24 885.08 773.77 868.12"/><path class="cls-18" d="M505,584.42s27.76,15.27,7.87,40.21-41.94,3.22-41.94,3.22Z"/><g class="cls-24"><path class="cls-19" d="M502.81,594.33l3.65,2.93a1.13,1.13,0,0,1,.09,1.55L503,603.24l-.25.31,1.37.22,4.48.7a1.17,1.17,0,0,1,1.11,1.53c-.45,2.9-.9,5.81-1.36,8.71a1.16,1.16,0,0,1-1.48,1.09l-5.53-.85-.34-.05.19.52c.65,1.69,1.3,3.37,2,5.06a1.19,1.19,0,0,1-.74,1.63l-8.33,3.22a1.16,1.16,0,0,1-1.65-.75q-1-2.58-2-5.16a.87.87,0,0,0-.19-.37l-.31.39-3.46,4.29a1.12,1.12,0,0,1-1.67.18l-3.52-2.86a.49.49,0,0,1,.11-.33l.23-.28,20.68-25.65C502.43,594.61,502.54,594.38,502.81,594.33Z"/><path class="cls-14" d="M502.81,594.33l-21.54,26.72c-1.2-1-2.41-1.92-3.6-2.89a1.13,1.13,0,0,1-.11-1.63l3.52-4.37.27-.34-3.22-.51c-.9-.14-1.79-.27-2.68-.42a1.16,1.16,0,0,1-1.07-1.44l1.38-8.82a1.15,1.15,0,0,1,1.45-1l5.47.85a.73.73,0,0,0,.42,0c-.16-.42-.31-.83-.47-1.23L481,595a1.18,1.18,0,0,1,.76-1.74l8.2-3.16a1.17,1.17,0,0,1,1.71.74l1.95,5,.2.51.27-.33c1.14-1.43,2.29-2.85,3.43-4.27a1.18,1.18,0,0,1,1.91-.19Z"/></g></g></svg>