<?xml version="1.0" ?><svg id="Icons" style="enable-background:new 0 0 32 32;" version="1.1" viewBox="0 0 32 32" xml:space="preserve" xmlns="http://www.w3.org/2000/svg" xmlns:xlink="http://www.w3.org/1999/xlink"><style type="text/css">
	.st0{fill:none;stroke:#000000;stroke-width:2;stroke-linecap:round;stroke-linejoin:round;stroke-miterlimit:10;}
</style><path d="M29,5c-0.6,0-1,0.4-1,1v4H13.9C13.4,7.2,11,5,8,5H5C3.3,5,2,6.3,2,8v3v4c0,0,0,0,0,0v0c0,0,0,0.1,0,0.1c0,0.1,0,0.2,0.1,0.3  c0,0.1,0.1,0.1,0.1,0.2c0,0.1,0.1,0.1,0.1,0.1c0.1,0.1,0.2,0.2,0.3,0.2c0,0,0,0,0,0l0,0c0,0,0,0,0,0l10.8,4.6l-2.3,1  C10.4,20.6,9.3,20,8,20c-2.2,0-4,1.8-4,4s1.8,4,4,4s4-1.8,4-4c0-0.2,0-0.4-0.1-0.6l4.1-1.7l4.1,1.7c0,0.2-0.1,0.4-0.1,0.6  c0,2.2,1.8,4,4,4s4-1.8,4-4s-1.8-4-4-4c-1.3,0-2.4,0.6-3.1,1.6l-2.3-1l10.8-4.6c0,0,0,0,0,0l0,0c0,0,0,0,0,0  c0.1-0.1,0.2-0.1,0.3-0.2c0,0,0.1-0.1,0.1-0.1c0-0.1,0.1-0.1,0.1-0.2c0-0.1,0.1-0.2,0.1-0.3c0,0,0-0.1,0-0.1v0c0,0,0,0,0,0v-4V6  C30,5.4,29.6,5,29,5z M8,26c-1.1,0-2-0.9-2-2s0.9-2,2-2c0.4,0,0.9,0.2,1.2,0.4l-1.6,0.7c-0.5,0.2-0.7,0.8-0.5,1.3  C7.2,24.8,7.6,25,8,25c0.1,0,0.3,0,0.4-0.1l1.6-0.7C9.9,25.2,9,26,8,26z M24.4,23.1l-1.6-0.7c0.3-0.2,0.7-0.4,1.2-0.4  c1.1,0,2,0.9,2,2s-0.9,2-2,2c-1,0-1.9-0.8-2-1.8l1.6,0.7C23.7,25,23.9,25,24,25c0.4,0,0.8-0.2,0.9-0.6  C25.1,23.9,24.9,23.3,24.4,23.1z M4,8c0-0.6,0.4-1,1-1h3c1.9,0,3.4,1.3,3.9,3H4V8z M16,19.5L7.9,16h16.3L16,19.5z"/></svg>