<?xml version="1.0" ?><svg id="Icons" style="enable-background:new 0 0 32 32;" version="1.1" viewBox="0 0 32 32" xml:space="preserve" xmlns="http://www.w3.org/2000/svg" xmlns:xlink="http://www.w3.org/1999/xlink"><style type="text/css">
	.st0{fill:none;stroke:#000000;stroke-width:2;stroke-linecap:round;stroke-linejoin:round;stroke-miterlimit:10;}
</style><path d="M22,11h2c0.6,0,1-0.4,1-1s-0.4-1-1-1h-2c-0.6,0-1,0.4-1,1S21.4,11,22,11z"/><path d="M29.8,17.4l-4-5C25.6,12.1,25.3,12,25,12h-5V9c0-0.6-0.4-1-1-1H3C2.4,8,2,8.4,2,9v15c0,0.6,0.4,1,1,1h2.2  c0.4,1.2,1.5,2,2.8,2s2.4-0.8,2.8-2H19h2.2c0.4,1.2,1.5,2,2.8,2s2.4-0.8,2.8-2H29c0.6,0,1-0.4,1-1v-6C30,17.8,29.9,17.6,29.8,17.4z   M8,25c-0.6,0-1-0.4-1-1s0.4-1,1-1s1,0.4,1,1S8.6,25,8,25z M14,17h-2v2c0,0.6-0.4,1-1,1s-1-0.4-1-1v-2H8c-0.6,0-1-0.4-1-1s0.4-1,1-1  h2v-2c0-0.6,0.4-1,1-1s1,0.4,1,1v2h2c0.6,0,1,0.4,1,1S14.6,17,14,17z M24,25c-0.6,0-1-0.4-1-1s0.4-1,1-1s1,0.4,1,1S24.6,25,24,25z"/></svg>